<?xml version="1.0" encoding="UTF-8"?>
<svg id="Layer_2" data-name="Layer 2" xmlns="http://www.w3.org/2000/svg" viewBox="0 0 16 16">
  <defs>
    <style>
      .cls-1 {
        fill: none;
      }

      .cls-2 {
        fill: #fff;
      }

      .cls-3 {
        fill: #151948;
      }

      .cls-4 {
        fill: #f68c1f;
      }
    </style>
  </defs>
  <g id="Layer_1-2" data-name="Layer 1">
    <g id="uuid-b3d1fc66-d953-49e7-8356-69d623034b93" data-name="Layer 1-2">
      <g>
        <rect class="cls-2" x="2" y="2" width="12" height="12" rx="2.25" ry="2.25"/>
        <g>
          <path class="cls-4" d="M12,7.75c0,1.04-.42,1.97-1.1,2.65l-1.06-1.06c.4-.41.66-.97.66-1.59s-.26-1.19-.66-1.59c-.4-.41-.97-.66-1.59-.66s-1.19.25-1.59.66l-1.06-1.07c.68-.67,1.62-1.09,2.65-1.09s1.97.42,2.65,1.09c.68.68,1.1,1.62,1.1,2.66Z"/>
          <path class="cls-3" d="M10.9,10.4l1.06,1.06c-.95.95-2.26,1.54-3.71,1.54s-2.76-.59-3.71-1.54c-.95-.95-1.54-2.26-1.54-3.71s.59-2.76,1.54-3.71l1.06,1.06c-.68.68-1.1,1.62-1.1,2.66s.42,1.97,1.1,2.65,1.62,1.1,2.65,1.1,1.97-.42,2.65-1.1h0Z"/>
          <path class="cls-3" d="M9.84,9.34c-.4.4-.97.66-1.59.66s-1.19-.26-1.59-.66c-.4-.41-.66-.97-.66-1.59s.26-1.19.66-1.59l1.06,1.06c-.13.14-.22.32-.22.53s.08.39.22.53c.14.14.32.22.53.22s.39-.08.53-.22l1.06,1.06Z"/>
        </g>
      </g>
      <rect class="cls-1" width="16" height="16"/>
    </g>
  </g>
</svg>